<?xml version="1.0" encoding="iso-8859-1"?>
<!-- Generator: Adobe Illustrator 18.0.0, SVG Export Plug-In . SVG Version: 6.00 Build 0)  -->
<!DOCTYPE svg PUBLIC "-//W3C//DTD SVG 1.1//EN" "http://www.w3.org/Graphics/SVG/1.1/DTD/svg11.dtd">
<svg version="1.1" id="Capa_1" xmlns="http://www.w3.org/2000/svg" xmlns:xlink="http://www.w3.org/1999/xlink" x="0px" y="0px"
	 viewBox="0 0 431.141 431.141" style="enable-background:new 0 0 431.141 431.141;" xml:space="preserve">
<g>
	<path style="fill:#211915;" d="M428.212,178.459l-21.338-21.338c-1.875-1.875-4.419-2.929-7.071-2.929h-9.854v-20.677
		c0-5.523-4.477-10-10-10H10c-5.523,0-10,4.477-10,10v139.403c0,5.523,4.477,10,10,10h28.872
		c3.355,14.147,16.086,24.707,31.244,24.707s27.889-10.56,31.244-24.707h22.346c3.355,14.147,16.085,24.707,31.244,24.707
		s27.889-10.56,31.244-24.707h91.631c3.355,14.147,16.086,24.707,31.244,24.707s27.889-10.56,31.244-24.707h39.634
		c5.523,0,10-4.477,10-10v-98.726h5.712l18.409,18.409c1.953,1.953,4.512,2.929,7.071,2.929s5.119-0.976,7.071-2.929
		C432.117,188.696,432.117,182.364,428.212,178.459z M358.806,174.193h11.143v35.601l-85.139-22.615v-43.663h85.139v10.677h-11.143
		c-5.523,0-10,4.477-10,10S353.283,174.193,358.806,174.193z M321.187,275.509c0,6.681-5.436,12.116-12.117,12.116
		s-12.117-5.436-12.117-12.116c0-6.681,5.436-12.117,12.117-12.117S321.187,268.828,321.187,275.509z M167.067,275.509
		c0,6.681-5.436,12.116-12.117,12.116c-6.681,0-12.116-5.436-12.116-12.116c0-6.681,5.436-12.117,12.116-12.117
		C161.632,263.392,167.067,268.828,167.067,275.509z M82.233,275.509c0,6.681-5.436,12.116-12.117,12.116S58,282.19,58,275.509
		c0-6.681,5.436-12.117,12.117-12.117S82.233,268.828,82.233,275.509z M309.07,243.392c-13.242,0-24.637,8.058-29.543,19.526
		h-95.034c-4.906-11.469-16.301-19.526-29.543-19.526s-24.636,8.058-29.543,19.526H99.66c-4.906-11.469-16.301-19.526-29.543-19.526
		s-24.637,8.058-29.543,19.526H20v-58.049h253.504l94.733,25.164c0.571,0.152,1.142,0.232,1.711,0.282v32.604h-31.335
		C333.707,251.45,322.313,243.392,309.07,243.392z M264.81,184.869H20v-41.354h244.81V184.869z"/>
</g>
<g>
</g>
<g>
</g>
<g>
</g>
<g>
</g>
<g>
</g>
<g>
</g>
<g>
</g>
<g>
</g>
<g>
</g>
<g>
</g>
<g>
</g>
<g>
</g>
<g>
</g>
<g>
</g>
<g>
</g>
</svg>
